<?xml version="1.0" encoding="UTF-8" standalone="no"?>
<!-- Created with Inkscape (http://www.inkscape.org/) -->

<svg
   width="210mm"
   height="297mm"
   viewBox="0 0 210 297"
   version="1.1"
   id="svg5"
   inkscape:version="1.2-dev (9ee32be, 2021-06-19)"
   sodipodi:docname="HELLO.svg"
   xmlns:inkscape="http://www.inkscape.org/namespaces/inkscape"
   xmlns:sodipodi="http://sodipodi.sourceforge.net/DTD/sodipodi-0.dtd"
   xmlns="http://www.w3.org/2000/svg"
   xmlns:svg="http://www.w3.org/2000/svg">
  <sodipodi:namedview
     id="namedview7"
     pagecolor="#ffffff"
     bordercolor="#666666"
     borderopacity="1.0"
     inkscape:pageshadow="2"
     inkscape:pageopacity="0.0"
     inkscape:pagecheckerboard="0"
     inkscape:document-units="mm"
     showgrid="false"
     inkscape:zoom="0.68506594"
     inkscape:cx="432.0752"
     inkscape:cy="610.8901"
     inkscape:window-width="1316"
     inkscape:window-height="955"
     inkscape:window-x="0"
     inkscape:window-y="23"
     inkscape:window-maximized="0"
     inkscape:current-layer="layer1" />
  <defs
     id="defs2" />
  <g
     inkscape:label="Layer 1"
     inkscape:groupmode="layer"
     id="layer1">
    <path
       style="fill:#333333;stroke-width:0.264583"
       id="path248"
       d="m 20.636629,66.446415 c 0.03279,1.570786 0.04634,3.141903 0.05794,4.712973 0.135618,2.670151 0.258612,5.34031 0.327227,8.013112 -0.03574,2.280044 0.146524,4.554241 0.183353,6.831322 -0.0209,1.98043 -0.08223,3.96009 -0.102069,5.940581 -0.04072,2.323642 0.0359,4.648785 -0.07144,6.970609 -0.143195,2.108718 -0.248757,4.218838 -0.308242,6.331508 0.0377,1.61282 -0.162452,3.2107 -0.303353,4.81332 -0.03924,1.22356 -0.161552,2.43111 -0.335958,3.64155 -0.147692,0.9343 -0.181836,1.87892 -0.19637,2.82289 -0.01317,1.0892 -0.0068,2.17851 -0.0093,3.26777 -0.0051,0.87939 -6.35e-4,1.75884 -0.0093,2.6382 -0.0088,0.3718 -0.0083,0.7437 -0.01649,1.1155 -6.35e-4,0.024 -0.0013,0.048 -0.0019,0.0719 0,0 3.554724,-1.81123 3.554724,-1.81123 v 0 c -6.35e-4,-0.0233 -0.0013,-0.0467 -0.0019,-0.07 -0.0083,-0.36616 -0.0078,-0.73241 -0.01721,-1.09856 -0.0098,-0.87541 -0.0069,-1.75093 -0.01402,-2.62637 -0.004,-1.08713 -0.0039,-2.17438 0.01746,-3.26137 0.02903,-0.93004 0.07719,-1.85977 0.213495,-2.7814 0.160513,-1.21312 0.247478,-2.42735 0.307224,-3.6495 0.137062,-1.60235 0.284415,-3.2032 0.253024,-4.81395 0.05374,-2.10667 0.161851,-4.210673 0.28585,-6.314308 0.08106,-2.328469 0.03318,-4.659292 0.08477,-6.988649 0.03656,-1.983793 0.09568,-3.967475 0.09477,-5.951688 -0.0545,-2.272618 -0.236873,-4.541647 -0.217251,-6.817371 -0.08139,-2.671704 -0.225722,-5.340654 -0.305216,-8.012326 0.01166,-1.59075 0.02537,-3.181544 0.05794,-4.772017 0,0 -3.527782,1.797494 -3.527782,1.797494 z" />
    <path
       style="fill:#333333;stroke-width:0.264583"
       id="path250"
       d="m 55.73551,66.174624 c -0.116731,2.925919 -0.277153,5.850811 -0.476443,8.772412 -0.27424,3.308839 -0.388464,6.626447 -0.557924,9.941205 -0.24702,2.825033 -0.282853,5.659062 -0.382865,8.490871 -0.158835,2.935194 -0.291312,5.870458 -0.363847,8.809018 -0.04933,2.16568 -0.04939,4.33192 -0.06311,6.49797 7.93e-4,2.14472 0.02217,4.2893 0.01275,6.43403 -0.02196,1.48999 0.04539,2.97877 -0.156514,4.45782 -0.140584,1.00613 -0.162909,2.01724 -0.373274,3.01233 -0.114274,0.44709 -0.206655,0.89951 -0.301487,1.35106 0,0 3.584196,-1.74244 3.584196,-1.74244 v 0 c 0.07486,-0.44513 0.168566,-0.8865 0.256503,-1.32915 0.169259,-1.00437 0.207391,-2.02181 0.349166,-3.03028 0.153961,-1.48343 0.05422,-2.97332 0.06175,-4.46224 -0.01098,-2.14805 0.0078,-4.29598 0.0076,-6.44402 -0.01114,-2.15628 -0.0055,-4.31278 0.02331,-6.4689 0.05141,-2.926213 0.162084,-5.851018 0.312489,-8.773801 0.143386,-2.832285 0.218644,-5.66787 0.405643,-8.498128 0.181486,-3.303717 0.227669,-6.615261 0.516544,-9.913419 0.210923,-2.951916 0.362606,-5.909979 0.674364,-8.853493 0,0 -3.528909,1.749155 -3.528909,1.749155 z" />
    <path
       style="fill:#333333;stroke-width:0.264583"
       id="path252"
       d="m 23.442362,94.625863 c 4.101408,-0.127379 8.203363,-0.08638 12.30496,-0.0027 4.427524,0.185245 8.858136,0.09572 13.286922,0.183195 2.249096,0.05783 4.497954,0.125333 6.747513,0.162586 1.036725,0.0199 2.073624,0.02434 3.110418,0.03862 0,0 3.184022,-2.312397 3.184022,-2.312397 v 0 c -1.053362,0.01011 -2.106763,0.0071 -3.160152,0.0026 -2.278303,-0.01921 -4.556265,-0.05873 -6.834282,-0.09847 -4.478131,-0.04757 -8.956305,0.126738 -13.433359,-0.07399 -4.002707,-0.09674 -8.005257,-0.153032 -12.008363,-0.222642 0,0 -3.197679,2.323248 -3.197679,2.323248 z" />
    <path
       style="fill:#333333;stroke-width:0.264583"
       id="path254"
       d="m 79.667107,68.348121 c -0.293666,2.543183 -0.454851,5.101167 -0.676545,7.652305 -0.409771,3.843192 -0.555024,7.706556 -0.870336,11.557191 -0.262906,3.328879 -0.616908,6.647942 -1.034674,9.960657 -0.425575,2.998936 -0.865712,5.994576 -1.318499,8.989306 -0.414004,2.83136 -0.704,5.67745 -0.962101,8.5266 -0.184468,2.66172 -0.365983,5.32122 -0.595718,7.97952 -0.128206,1.49503 -0.192439,2.99433 -0.258789,4.49305 -0.0047,0.10868 -0.0094,0.21736 -0.01408,0.32604 0,0 3.525699,-1.78736 3.525699,-1.78736 v 0 c -2.64e-4,-0.10538 -5.29e-4,-0.21077 -0.0011,-0.31615 0.0096,-1.47902 0.07374,-2.95708 0.184618,-4.43203 0.196303,-2.64783 0.336789,-5.29822 0.539184,-7.94541 0.278763,-2.84429 0.575236,-5.68647 0.986946,-8.51517 0.452983,-2.99055 0.85828,-5.986499 1.280988,-8.981492 0.413624,-3.310287 0.787265,-6.624799 0.986759,-9.956065 0.292663,-3.849539 0.508875,-7.704994 0.865425,-11.549522 0.24923,-2.586459 0.477454,-5.177428 0.918541,-7.740216 0,0 -3.556481,1.738746 -3.556481,1.738746 z" />
    <path
       style="fill:#333333;stroke-width:0.264583"
       id="path256"
       d="m 80.652278,70.990573 c 1.950275,-0.704961 4.034464,-0.970555 6.08521,-1.207643 2.201386,-0.272246 4.408477,-0.243221 6.617113,-0.12695 1.911818,0.102317 3.818747,0.304292 5.713356,0.578075 1.378453,0.246063 2.780813,0.195366 4.172423,0.138941 0.82854,-0.03597 1.65749,-0.06007 2.48678,-0.06643 0.27437,-0.0039 0.14355,-0.0028 0.39246,-0.004 0,0 3.21231,-2.338909 3.21231,-2.338909 v 0 c -0.25571,0.0039 -0.12169,0.0019 -0.40206,0.006 -0.84389,0.02766 -1.68798,0.04991 -2.53146,0.08847 -1.38783,0.06118 -2.78908,0.178295 -4.16785,-0.05432 -1.90767,-0.266293 -3.824085,-0.493813 -5.74823,-0.594686 -2.230448,-0.122107 -4.456782,-0.173307 -6.681697,0.09626 -2.034622,0.215818 -4.075825,0.487466 -6.050611,1.037032 0,0 -3.097744,2.448195 -3.097744,2.448195 z" />
    <path
       style="fill:#333333;stroke-width:0.264583"
       id="path258"
       d="m 81.005361,89.9675 c 2.739491,-0.368649 5.513023,-0.266467 8.268349,-0.21422 3.125655,0.07815 6.240777,0.289351 9.368483,0.28729 2.072607,-0.0601 4.138977,-0.03418 6.207257,0.104918 1.10376,0.07894 2.20854,0.140441 3.31377,0.194096 0,0 3.18685,-2.297703 3.18685,-2.297703 v 0 c -1.11928,-0.0275 -2.23785,-0.07715 -3.3551,-0.150831 -2.0901,-0.130064 -4.17525,-0.186211 -6.26946,-0.09301 -3.149593,0.02951 -6.287226,-0.125651 -9.434217,-0.227759 -2.706709,-0.0593 -5.418823,-0.190108 -8.121925,0.02912 0,0 -3.164007,2.3681 -3.164007,2.368099 z" />
    <path
       style="fill:#333333;stroke-width:0.264583"
       id="path260"
       d="m 74.40673,126.70504 c 2.957396,0.16919 5.913813,0.34286 8.866761,0.58411 2.888978,0.30036 5.791084,0.2827 8.685194,0.10116 2.855519,-0.2586 5.71577,-0.25655 8.578145,-0.16771 2.06256,0.12231 4.12712,0.001 6.18854,-0.0787 0.8923,-0.0312 0.46882,-0.018 1.27042,-0.0408 0,0 3.1591,-2.31334 3.1591,-2.31334 v 0 c -0.82218,0.038 -0.38905,0.0183 -1.29941,0.0591 -2.07924,0.10012 -4.16212,0.25114 -6.24421,0.15374 -2.86439,-0.0787 -5.728064,-0.13165 -8.586495,0.12991 -2.902638,0.19041 -5.816251,0.27384 -8.717587,-0.0106 -2.89043,-0.22737 -5.78326,-0.43402 -8.670528,-0.69424 0,0 -3.22993,2.27737 -3.22993,2.27737 z" />
    <path
       style="fill:#333333;stroke-width:0.264583"
       id="path262"
       d="m 120.28334,68.422157 c 0.1663,3.393212 0.0603,6.789287 -0.0916,10.18056 -0.21625,4.267954 -0.57266,8.528839 -1.03018,12.777457 -0.33061,3.511343 -0.87083,6.997441 -1.33703,10.492086 -0.55502,3.82145 -1.26479,7.62282 -2.0817,11.39702 -0.69962,2.97887 -1.28096,5.98394 -1.78579,9.0015 -0.28283,1.93055 -0.48904,3.87376 -0.5972,5.82209 0.1072,0.33147 -0.18151,1.31045 -0.0487,1.62082 0.0373,0.0871 0.11131,0.15329 0.16697,0.22992 0.0953,0.0486 0.1836,0.1149 0.28604,0.14595 0.64417,0.19524 2.19567,0.0812 2.91189,0.10765 1.74486,0.13711 3.4918,0.22469 5.24113,0.27697 1.93528,-0.0505 3.8665,-0.19292 5.80117,-0.26703 1.2919,-0.0469 2.58463,-0.0511 3.87718,-0.0507 0.43381,-2.7e-4 0.21565,0.007 0.65445,-0.0238 0,0 3.16383,-2.37036 3.16383,-2.37036 v 0 c -0.40518,0.0944 -0.19644,0.0689 -0.62679,0.0718 -1.3195,0.0194 -2.63856,0.0634 -3.95777,0.0957 -1.92707,0.0648 -3.85035,0.19257 -5.77633,0.27933 -1.74349,-0.0443 -3.4854,-0.12394 -5.22311,-0.27733 -0.97964,-0.0699 -1.9759,-0.0953 -2.95443,-0.0618 -0.0578,0.0934 -0.0297,-0.21812 -0.0313,-0.32791 -0.006,-0.40325 -0.003,-0.80664 0.01,-1.20974 0.0674,-1.91761 0.21649,-3.83308 0.51459,-5.72987 0.4941,-3.00379 1.06684,-5.99441 1.74378,-8.96268 0.78071,-3.78571 1.47246,-7.59208 2.05569,-11.413 0.5128,-3.490538 1.00448,-6.98653 1.32443,-10.50088 0.42159,-4.246842 0.75995,-8.503245 0.96202,-12.766489 0.16964,-3.442325 0.26717,-6.886453 0.35055,-10.331762 0,0 -3.52174,1.79442 -3.52174,1.79442 z" />
    <path
       style="fill:#333333;stroke-width:0.264583"
       id="path264"
       d="m 144.16516,67.961906 c -0.1741,1.858132 -0.16206,3.725754 -0.27002,5.587402 -0.15986,2.685227 -0.27199,5.371984 -0.4434,8.056435 -0.12783,3.025582 -0.51502,6.032543 -0.95876,9.025702 -0.53676,3.129447 -0.96593,6.276597 -1.54212,9.399055 -0.46135,2.76626 -1.03253,5.50767 -1.36446,8.29374 -0.44479,2.95001 -0.53584,5.92935 -0.61102,8.90627 0.0144,2.74906 -0.16482,5.48997 -0.3547,8.23054 -0.0914,1.34414 -0.12988,2.69096 -0.1777,4.03712 -0.007,0.27119 -0.0227,0.54222 -0.0273,0.81348 0.0617,0.0793 0.10794,0.17344 0.18499,0.23791 0.0301,0.0252 1.75599,0.0761 1.90891,0.0906 1.33743,0.14231 2.67947,0.2074 4.02323,0.24533 1.44303,-0.0348 2.87565,0.12469 4.31017,0.25088 1.19368,0.10033 2.39141,0.1041 3.58029,0.25498 0.58793,0.0725 1.17149,0.17552 1.75824,0.25594 0,0 3.2347,-2.29459 3.2347,-2.29459 v 0 c -0.59922,-0.0541 -1.19404,-0.14923 -1.79088,-0.22382 -1.19892,-0.16609 -2.40034,-0.18601 -3.60817,-0.25782 -1.44062,-0.11814 -2.87691,-0.30435 -4.32544,-0.2684 -1.3319,-0.0301 -2.66406,-0.0846 -3.98899,-0.23167 -0.14125,-0.0164 -1.8259,-0.23124 -1.82138,-0.0976 0.003,0.0786 0.0611,0.14485 0.0916,0.21727 -0.0112,-0.25834 -0.0141,-0.51693 -0.0159,-0.77548 -0.002,-1.32874 0.0394,-2.65694 0.10828,-3.98386 0.13193,-2.73018 0.25583,-5.45941 0.25549,-8.19366 0.0914,-2.97567 0.24995,-5.94976 0.67495,-8.89955 0.33649,-2.77473 0.90299,-5.5084 1.35679,-8.265232 0.54916,-3.127029 0.97693,-6.274001 1.52212,-9.401919 0.4512,-3.006159 0.82125,-6.028094 0.96974,-9.066053 0.18041,-2.68841 0.28121,-5.380199 0.4617,-8.06863 0.11003,-1.871843 0.11801,-3.758274 0.41552,-5.613146 0,0 -3.55649,1.738746 -3.55649,1.738746 z" />
    <path
       style="fill:#333333;stroke-width:0.264583"
       id="path266"
       d="m 185.65655,71.394269 c -1.67448,-0.886039 -3.55266,-1.249434 -5.41526,-1.475894 -3.8932,-0.333208 -5.33497,1.056484 -8.81288,3.125976 -1.43885,1.420825 -2.34891,3.271282 -3.09935,5.125119 -0.76296,1.908339 -1.19639,3.913775 -1.59324,5.922756 -0.35544,2.344793 -0.5164,4.715309 -0.65313,7.081644 -0.13806,2.817699 -0.14855,5.639284 -0.15018,8.459682 0.0994,2.928578 0.23717,5.855218 0.30778,8.784818 0.0458,2.79287 0.11821,5.58715 0.0273,8.3795 -0.0704,2.54591 -0.36129,5.07665 -0.55043,7.61463 -0.10848,1.89005 -0.25355,3.78603 -0.16082,5.67915 0.0747,1.71516 0.33669,2.68249 1.52588,3.9354 1.36404,1.16142 3.16609,1.3084 4.87933,1.44285 4.16805,0.10188 5.05759,-0.90789 8.91669,-3.17699 1.90486,-1.61934 2.62313,-4.07454 3.417,-6.35407 1.18512,-3.61157 1.75043,-7.39032 2.36165,-11.13136 0.71331,-5.00784 1.04322,-10.06064 1.28177,-15.110208 0.18755,-4.411901 0.2393,-8.827969 0.2724,-13.243245 0.0584,-3.083349 -0.10678,-6.166012 -0.4803,-9.226101 -0.19723,-2.329971 -0.74015,-4.597767 -1.78817,-6.689661 -0.82058,-1.334765 -1.90014,-2.516325 -3.24233,-3.334832 0,0 -3.29473,2.144562 -3.29473,2.144562 v 0 c 1.3443,0.693163 2.40038,1.818089 3.19591,3.092973 1.02725,2.051619 1.55452,4.273386 1.75833,6.556698 0.37383,3.034668 0.58303,6.086909 0.53116,9.146691 0.004,4.393813 -0.006,8.788852 -0.18293,13.179873 -0.2381,5.04811 -0.5875,10.09886 -1.3547,15.09794 -0.64327,3.7398 -1.23904,7.51906 -2.48309,11.11658 -0.82168,2.25375 -1.58774,4.66858 -3.595,6.15919 0.85254,-0.46977 1.71642,-0.91952 2.55762,-1.40931 0.26373,-0.15356 -0.53796,0.29246 -0.82368,0.39971 -1.23693,0.46428 -2.60802,0.5237 -3.91097,0.53771 -1.61985,-0.11134 -3.35632,-0.19233 -4.68847,-1.22937 -1.14282,-1.16921 -1.32052,-2.06837 -1.40547,-3.68159 -0.0782,-1.87208 0.0374,-3.74693 0.13807,-5.61635 0.18263,-2.53658 0.45237,-5.06727 0.50845,-7.61161 0.081,-2.80031 0.0205,-5.60301 -0.0285,-8.40362 -0.0898,-2.92209 -0.24104,-5.84171 -0.32235,-8.764 0.021,-2.817847 0.0338,-5.637242 0.18136,-8.452009 0.14342,-2.361385 0.34293,-4.723201 0.72552,-7.059202 0.3944,-1.989381 0.83817,-3.97215 1.62111,-5.851779 0.76705,-1.809377 1.67458,-3.637476 3.20281,-4.925888 -0.86151,0.470278 -1.73119,0.925867 -2.58451,1.410837 -0.24789,0.140883 0.50233,-0.272748 0.7673,-0.378057 1.23323,-0.490141 2.5825,-0.632685 3.896,-0.521021 1.79855,0.172048 3.63408,0.492739 5.22196,1.403313 0,0 3.32515,-2.151435 3.32515,-2.151435 z" />
  </g>
</svg>
